<svg width="455" height="76" viewBox="0 0 455 76" fill="none" xmlns="http://www.w3.org/2000/svg">
<path d="M117.768 71H94.968V67.208H98.76V43.592H94.968V39.8H108.072V43.592H103.128V67.208H113.976L114.936 60.392L118.728 60.728L117.768 71ZM124.097 44.504V39.56H128.465V44.504H124.097ZM132.065 71H120.881V67.736H124.385V52.856H120.737V49.544H128.609V67.736H132.065V71ZM156.71 52.856H154.214L146.438 71H143.318L135.158 52.856H132.662V49.544H142.886V52.856H139.67L145.094 65.432H145.382L150.086 52.856H147.158V49.544H156.71V52.856ZM177.592 64.664C177.368 66.52 176.456 68.12 174.856 69.464C173.256 70.808 171.08 71.48 168.328 71.48C165.224 71.48 162.712 70.552 160.792 68.696C158.872 66.84 157.912 64.152 157.912 60.632C157.912 57.304 158.808 54.552 160.6 52.376C162.392 50.2 164.872 49.112 168.04 49.112C170.984 49.112 173.272 50.024 174.904 51.848C176.536 53.672 177.368 55.88 177.4 58.472C177.4 59.336 177.304 60.248 177.112 61.208H162.328C162.52 65.752 164.616 68.024 168.616 68.024C170.28 68.024 171.528 67.624 172.36 66.824C173.224 66.024 173.8 65.064 174.088 63.944L177.592 64.664ZM173.032 58.376C173.16 56.968 172.808 55.624 171.976 54.344C171.176 53.032 169.832 52.376 167.944 52.376C166.184 52.376 164.856 52.968 163.96 54.152C163.096 55.304 162.568 56.712 162.376 58.376H173.032ZM224.49 52.856H222.186L215.994 71H212.826L206.586 55.688H206.346L200.298 71H197.274L190.89 52.856H188.682V49.544H199.146V52.856H195.402L199.338 64.856H199.578L205.53 49.544H208.218L214.65 64.808H214.938L218.25 52.856H214.65V49.544H224.49V52.856ZM229.706 44.504V39.56H234.074V44.504H229.706ZM237.674 71H226.49V67.736H229.994V52.856H226.346V49.544H234.218V67.736H237.674V71ZM256.785 64.952C256.177 69.304 253.777 71.48 249.585 71.48C247.377 71.48 245.649 70.888 244.401 69.704C243.185 68.488 242.577 66.808 242.577 64.664V52.76H239.265V49.544H242.577V42.776H246.753V49.544H254.961V52.76H246.753V64.04C246.753 66.6 247.857 67.88 250.065 67.88C250.769 67.88 251.473 67.656 252.177 67.208C252.881 66.728 253.377 65.64 253.665 63.944L256.785 64.952ZM283.516 71H272.332V67.736H275.836V58.472C275.836 56.296 275.404 54.76 274.54 53.864C273.676 52.936 272.54 52.472 271.132 52.472C269.404 52.472 268.012 53.064 266.956 54.248C265.9 55.4 265.34 56.728 265.276 58.232V67.736H268.78V71H257.644V67.736H261.1V41.288H257.644V37.976H265.276V53.24C266.844 50.488 269.292 49.112 272.62 49.112C274.7 49.112 276.46 49.752 277.9 51.032C279.34 52.312 280.06 54.312 280.06 57.032V67.736H283.516V71ZM318.375 62.072C318.375 65.112 317.303 67.448 315.159 69.08C313.047 70.68 310.295 71.48 306.903 71.48C304.823 71.48 302.855 71.24 300.999 70.76C299.143 70.248 297.671 69.576 296.583 68.744L297.303 62.12L300.807 62.456L300.711 66.344C301.767 66.888 302.775 67.256 303.735 67.448C304.727 67.608 305.703 67.688 306.663 67.688C308.647 67.688 310.311 67.32 311.655 66.584C313.031 65.816 313.719 64.456 313.719 62.504C313.719 60.328 312.951 58.904 311.415 58.232C309.911 57.528 308.215 56.984 306.327 56.6C304.823 56.28 303.335 55.88 301.863 55.4C300.423 54.92 299.207 54.136 298.215 53.048C297.255 51.928 296.775 50.312 296.775 48.2C296.775 45.096 297.815 42.84 299.895 41.432C301.975 40.024 304.375 39.32 307.095 39.32C308.919 39.32 310.727 39.592 312.519 40.136C314.311 40.648 315.703 41.32 316.695 42.152L316.983 48.536L313.479 48.872L312.951 44.504C312.023 43.992 311.079 43.64 310.119 43.448C309.159 43.256 308.247 43.16 307.383 43.16C305.623 43.16 304.183 43.544 303.063 44.312C301.975 45.08 301.431 46.216 301.431 47.72C301.431 49.48 302.103 50.68 303.447 51.32C304.791 51.928 306.279 52.424 307.911 52.808C309.255 53.096 310.743 53.496 312.375 54.008C314.007 54.488 315.415 55.336 316.599 56.552C317.783 57.768 318.375 59.608 318.375 62.072ZM324.041 51.176C325.353 50.408 326.633 49.88 327.881 49.592C329.161 49.272 330.553 49.112 332.057 49.112C334.489 49.112 336.409 49.704 337.817 50.888C339.257 52.072 339.977 53.896 339.977 56.36V66.296C339.977 67.704 340.537 68.408 341.657 68.408C342.105 68.408 342.537 68.328 342.953 68.168L343.001 70.664C342.105 71.208 341.065 71.48 339.881 71.48C337.289 71.48 335.913 70.04 335.753 67.16V67.112C335.113 68.232 334.185 69.24 332.969 70.136C331.785 71.032 330.329 71.48 328.601 71.48C327.129 71.48 325.657 71.032 324.185 70.136C322.745 69.24 322.025 67.672 322.025 65.432C322.025 62.744 323.081 60.984 325.193 60.152C327.337 59.288 329.625 58.856 332.057 58.856C333.529 58.856 334.761 58.92 335.753 59.048V57.464C335.753 56.056 335.481 54.856 334.937 53.864C334.393 52.872 333.177 52.376 331.289 52.376C329.753 52.376 328.457 52.648 327.401 53.192L326.585 56.696L323.177 56.312L324.041 51.176ZM335.753 62.744V61.496C335.177 61.432 334.569 61.384 333.929 61.352C333.321 61.288 332.697 61.256 332.057 61.256C330.585 61.256 329.273 61.496 328.121 61.976C326.969 62.456 326.393 63.448 326.393 64.952C326.393 66.104 326.745 66.936 327.449 67.448C328.185 67.96 329.017 68.216 329.945 68.216C331.321 68.216 332.601 67.736 333.785 66.776C334.969 65.816 335.625 64.472 335.753 62.744ZM363.46 64.712C363.46 66.856 362.564 68.52 360.772 69.704C359.012 70.888 356.772 71.48 354.052 71.48C350.756 71.48 347.956 70.776 345.652 69.368L346.324 64.184L349.636 64.52L349.54 67.304C350.18 67.624 350.868 67.848 351.604 67.976C352.372 68.104 353.124 68.168 353.86 68.168C355.236 68.168 356.468 67.912 357.556 67.4C358.676 66.888 359.236 66.088 359.236 65C359.236 63.944 358.788 63.208 357.892 62.792C356.996 62.344 355.876 62.008 354.532 61.784C353.22 61.56 351.908 61.288 350.596 60.968C349.284 60.616 348.18 60.04 347.284 59.24C346.388 58.408 345.94 57.16 345.94 55.496C345.94 53.096 346.82 51.432 348.58 50.504C350.372 49.576 352.276 49.112 354.292 49.112C355.764 49.112 357.14 49.304 358.42 49.688C359.732 50.04 360.916 50.504 361.972 51.08L362.452 56.264L359.092 56.648L358.612 53.288C357.3 52.68 355.924 52.376 354.484 52.376C353.3 52.376 352.324 52.6 351.556 53.048C350.788 53.496 350.404 54.232 350.404 55.256C350.404 56.248 350.836 56.952 351.7 57.368C352.596 57.784 353.684 58.104 354.964 58.328C356.276 58.52 357.572 58.792 358.852 59.144C360.164 59.496 361.252 60.088 362.116 60.92C363.012 61.752 363.46 63.016 363.46 64.712ZM384.788 64.712C384.788 66.856 383.892 68.52 382.1 69.704C380.34 70.888 378.1 71.48 375.38 71.48C372.084 71.48 369.284 70.776 366.98 69.368L367.652 64.184L370.964 64.52L370.868 67.304C371.508 67.624 372.196 67.848 372.932 67.976C373.7 68.104 374.452 68.168 375.188 68.168C376.564 68.168 377.796 67.912 378.884 67.4C380.004 66.888 380.564 66.088 380.564 65C380.564 63.944 380.116 63.208 379.22 62.792C378.324 62.344 377.204 62.008 375.86 61.784C374.548 61.56 373.236 61.288 371.924 60.968C370.612 60.616 369.508 60.04 368.612 59.24C367.716 58.408 367.268 57.16 367.268 55.496C367.268 53.096 368.148 51.432 369.908 50.504C371.7 49.576 373.604 49.112 375.62 49.112C377.092 49.112 378.468 49.304 379.748 49.688C381.06 50.04 382.244 50.504 383.3 51.08L383.78 56.264L380.42 56.648L379.94 53.288C378.628 52.68 377.252 52.376 375.812 52.376C374.628 52.376 373.652 52.6 372.884 53.048C372.116 53.496 371.732 54.232 371.732 55.256C371.732 56.248 372.164 56.952 373.028 57.368C373.924 57.784 375.012 58.104 376.292 58.328C377.604 58.52 378.9 58.792 380.18 59.144C381.492 59.496 382.58 60.088 383.444 60.92C384.34 61.752 384.788 63.016 384.788 64.712Z" fill="#315C72"/>
<g clip-path="url(#clip0_0_1)">
<path d="M69 67.5938C69.825 67.5938 70.5 66.9328 70.5 66.125V39.6875H63C61.3406 39.6875 60 38.3748 60 36.75V29.4062H45C44.175 29.4062 43.5 30.0672 43.5 30.875V66.125C43.5 66.9328 44.175 67.5938 45 67.5938H69ZM39 30.875C39 27.6346 41.6906 25 45 25H60.5156C62.1094 25 63.6375 25.615 64.7625 26.7166L73.2469 35.0242C74.3719 36.1258 75 37.6221 75 39.1826V66.125C75 69.3654 72.3094 72 69 72H45C41.6906 72 39 69.3654 39 66.125V30.875Z" fill="#315C72"/>
</g>
<defs>
<clipPath id="clip0_0_1">
<rect width="36" height="47" fill="white" transform="translate(39 25)"/>
</clipPath>
</defs>
</svg>
