<svg width="346" height="58" viewBox="0 0 346 58" fill="none" xmlns="http://www.w3.org/2000/svg">
<path d="M76.768 46H53.968V42.208H57.76V18.592H53.968V14.8H67.072V18.592H62.128V42.208H72.976L73.936 35.392L77.728 35.728L76.768 46ZM83.0969 19.504V14.56H87.4649V19.504H83.0969ZM91.0649 46H79.8809V42.736H83.3849V27.856H79.7369V24.544H87.6089V42.736H91.0649V46ZM115.71 27.856H113.214L105.438 46H102.318L94.1579 27.856H91.6619V24.544H101.886V27.856H98.6699L104.094 40.432H104.382L109.086 27.856H106.158V24.544H115.71V27.856ZM136.592 39.664C136.368 41.52 135.456 43.12 133.856 44.464C132.256 45.808 130.08 46.48 127.328 46.48C124.224 46.48 121.712 45.552 119.792 43.696C117.872 41.84 116.912 39.152 116.912 35.632C116.912 32.304 117.808 29.552 119.6 27.376C121.392 25.2 123.872 24.112 127.04 24.112C129.984 24.112 132.272 25.024 133.904 26.848C135.536 28.672 136.368 30.88 136.4 33.472C136.4 34.336 136.304 35.248 136.112 36.208H121.328C121.52 40.752 123.616 43.024 127.616 43.024C129.28 43.024 130.528 42.624 131.36 41.824C132.224 41.024 132.8 40.064 133.088 38.944L136.592 39.664ZM132.032 33.376C132.16 31.968 131.808 30.624 130.976 29.344C130.176 28.032 128.832 27.376 126.944 27.376C125.184 27.376 123.856 27.968 122.96 29.152C122.096 30.304 121.568 31.712 121.376 33.376H132.032ZM183.49 27.856H181.186L174.994 46H171.826L165.586 30.688H165.346L159.298 46H156.274L149.89 27.856H147.682V24.544H158.146V27.856H154.402L158.338 39.856H158.578L164.53 24.544H167.218L173.65 39.808H173.938L177.25 27.856H173.65V24.544H183.49V27.856ZM188.706 19.504V14.56H193.074V19.504H188.706ZM196.674 46H185.49V42.736H188.994V27.856H185.346V24.544H193.218V42.736H196.674V46ZM215.785 39.952C215.177 44.304 212.777 46.48 208.585 46.48C206.377 46.48 204.649 45.888 203.401 44.704C202.185 43.488 201.577 41.808 201.577 39.664V27.76H198.265V24.544H201.577V17.776H205.753V24.544H213.961V27.76H205.753V39.04C205.753 41.6 206.857 42.88 209.065 42.88C209.769 42.88 210.473 42.656 211.177 42.208C211.881 41.728 212.377 40.64 212.665 38.944L215.785 39.952ZM242.516 46H231.332V42.736H234.836V33.472C234.836 31.296 234.404 29.76 233.54 28.864C232.676 27.936 231.54 27.472 230.132 27.472C228.404 27.472 227.012 28.064 225.956 29.248C224.9 30.4 224.34 31.728 224.276 33.232V42.736H227.78V46H216.644V42.736H220.1V16.288H216.644V12.976H224.276V28.24C225.844 25.488 228.292 24.112 231.62 24.112C233.7 24.112 235.46 24.752 236.9 26.032C238.34 27.312 239.06 29.312 239.06 32.032V42.736H242.516V46ZM277.375 37.072C277.375 40.112 276.303 42.448 274.159 44.08C272.047 45.68 269.295 46.48 265.903 46.48C263.823 46.48 261.855 46.24 259.999 45.76C258.143 45.248 256.671 44.576 255.583 43.744L256.303 37.12L259.807 37.456L259.711 41.344C260.767 41.888 261.775 42.256 262.735 42.448C263.727 42.608 264.703 42.688 265.663 42.688C267.647 42.688 269.311 42.32 270.655 41.584C272.031 40.816 272.719 39.456 272.719 37.504C272.719 35.328 271.951 33.904 270.415 33.232C268.911 32.528 267.215 31.984 265.327 31.6C263.823 31.28 262.335 30.88 260.863 30.4C259.423 29.92 258.207 29.136 257.215 28.048C256.255 26.928 255.775 25.312 255.775 23.2C255.775 20.096 256.815 17.84 258.895 16.432C260.975 15.024 263.375 14.32 266.095 14.32C267.919 14.32 269.727 14.592 271.519 15.136C273.311 15.648 274.703 16.32 275.695 17.152L275.983 23.536L272.479 23.872L271.951 19.504C271.023 18.992 270.079 18.64 269.119 18.448C268.159 18.256 267.247 18.16 266.383 18.16C264.623 18.16 263.183 18.544 262.063 19.312C260.975 20.08 260.431 21.216 260.431 22.72C260.431 24.48 261.103 25.68 262.447 26.32C263.791 26.928 265.279 27.424 266.911 27.808C268.255 28.096 269.743 28.496 271.375 29.008C273.007 29.488 274.415 30.336 275.599 31.552C276.783 32.768 277.375 34.608 277.375 37.072ZM283.041 26.176C284.353 25.408 285.633 24.88 286.881 24.592C288.161 24.272 289.553 24.112 291.057 24.112C293.489 24.112 295.409 24.704 296.817 25.888C298.257 27.072 298.977 28.896 298.977 31.36V41.296C298.977 42.704 299.537 43.408 300.657 43.408C301.105 43.408 301.537 43.328 301.953 43.168L302.001 45.664C301.105 46.208 300.065 46.48 298.881 46.48C296.289 46.48 294.913 45.04 294.753 42.16V42.112C294.113 43.232 293.185 44.24 291.969 45.136C290.785 46.032 289.329 46.48 287.601 46.48C286.129 46.48 284.657 46.032 283.185 45.136C281.745 44.24 281.025 42.672 281.025 40.432C281.025 37.744 282.081 35.984 284.193 35.152C286.337 34.288 288.625 33.856 291.057 33.856C292.529 33.856 293.761 33.92 294.753 34.048V32.464C294.753 31.056 294.481 29.856 293.937 28.864C293.393 27.872 292.177 27.376 290.289 27.376C288.753 27.376 287.457 27.648 286.401 28.192L285.585 31.696L282.177 31.312L283.041 26.176ZM294.753 37.744V36.496C294.177 36.432 293.569 36.384 292.929 36.352C292.321 36.288 291.697 36.256 291.057 36.256C289.585 36.256 288.273 36.496 287.121 36.976C285.969 37.456 285.393 38.448 285.393 39.952C285.393 41.104 285.745 41.936 286.449 42.448C287.185 42.96 288.017 43.216 288.945 43.216C290.321 43.216 291.601 42.736 292.785 41.776C293.969 40.816 294.625 39.472 294.753 37.744ZM322.46 39.712C322.46 41.856 321.564 43.52 319.772 44.704C318.012 45.888 315.772 46.48 313.052 46.48C309.756 46.48 306.956 45.776 304.652 44.368L305.324 39.184L308.636 39.52L308.54 42.304C309.18 42.624 309.868 42.848 310.604 42.976C311.372 43.104 312.124 43.168 312.86 43.168C314.236 43.168 315.468 42.912 316.556 42.4C317.676 41.888 318.236 41.088 318.236 40C318.236 38.944 317.788 38.208 316.892 37.792C315.996 37.344 314.876 37.008 313.532 36.784C312.22 36.56 310.908 36.288 309.596 35.968C308.284 35.616 307.18 35.04 306.284 34.24C305.388 33.408 304.94 32.16 304.94 30.496C304.94 28.096 305.82 26.432 307.58 25.504C309.372 24.576 311.276 24.112 313.292 24.112C314.764 24.112 316.14 24.304 317.42 24.688C318.732 25.04 319.916 25.504 320.972 26.08L321.452 31.264L318.092 31.648L317.612 28.288C316.3 27.68 314.924 27.376 313.484 27.376C312.3 27.376 311.324 27.6 310.556 28.048C309.788 28.496 309.404 29.232 309.404 30.256C309.404 31.248 309.836 31.952 310.7 32.368C311.596 32.784 312.684 33.104 313.964 33.328C315.276 33.52 316.572 33.792 317.852 34.144C319.164 34.496 320.252 35.088 321.116 35.92C322.012 36.752 322.46 38.016 322.46 39.712ZM343.788 39.712C343.788 41.856 342.892 43.52 341.1 44.704C339.34 45.888 337.1 46.48 334.38 46.48C331.084 46.48 328.284 45.776 325.98 44.368L326.652 39.184L329.964 39.52L329.868 42.304C330.508 42.624 331.196 42.848 331.932 42.976C332.7 43.104 333.452 43.168 334.188 43.168C335.564 43.168 336.796 42.912 337.884 42.4C339.004 41.888 339.564 41.088 339.564 40C339.564 38.944 339.116 38.208 338.22 37.792C337.324 37.344 336.204 37.008 334.86 36.784C333.548 36.56 332.236 36.288 330.924 35.968C329.612 35.616 328.508 35.04 327.612 34.24C326.716 33.408 326.268 32.16 326.268 30.496C326.268 28.096 327.148 26.432 328.908 25.504C330.7 24.576 332.604 24.112 334.62 24.112C336.092 24.112 337.468 24.304 338.748 24.688C340.06 25.04 341.244 25.504 342.3 26.08L342.78 31.264L339.42 31.648L338.94 28.288C337.628 27.68 336.252 27.376 334.812 27.376C333.628 27.376 332.652 27.6 331.884 28.048C331.116 28.496 330.732 29.232 330.732 30.256C330.732 31.248 331.164 31.952 332.028 32.368C332.924 32.784 334.012 33.104 335.292 33.328C336.604 33.52 337.9 33.792 339.18 34.144C340.492 34.496 341.58 35.088 342.444 35.92C343.34 36.752 343.788 38.016 343.788 39.712Z" fill="white"/>
<path d="M30 42.5938C30.825 42.5938 31.5 41.9328 31.5 41.125V14.6875H24C22.3406 14.6875 21 13.3748 21 11.75V4.40625H6C5.175 4.40625 4.5 5.06719 4.5 5.875V41.125C4.5 41.9328 5.175 42.5938 6 42.5938H30ZM0 5.875C0 2.63457 2.69063 0 6 0H21.5156C23.1094 0 24.6375 0.615039 25.7625 1.7166L34.2469 10.0242C35.3719 11.1258 36 12.6221 36 14.1826V41.125C36 44.3654 33.3094 47 30 47H6C2.69063 47 0 44.3654 0 41.125V5.875Z" fill="white"/>
</svg>
